<svg width="191" height="189" viewBox="0 0 191 189" fill="none" xmlns="http://www.w3.org/2000/svg">
<path d="M133.228 188.704C134.228 188.332 135.389 187.467 135.952 186.673C137.026 185.162 137.711 181.592 137.348 179.405C137.059 177.664 128.05 154.981 127.101 153.603C126.26 152.384 124.712 151.073 123.093 150.211C122.056 149.658 121.471 149.502 120.162 149.426C118.169 149.311 116.872 149.821 115.709 151.177C114.255 152.872 113.398 156.427 113.84 158.93C114.051 160.128 122.342 181.439 123.471 183.686C124.12 184.978 126.16 186.989 127.82 187.973C129.11 188.738 129.498 188.86 130.857 188.929C131.844 188.978 132.712 188.896 133.228 188.704ZM58.3785 188.062C60.6056 187.231 63.274 185.025 64.2514 183.208C64.5556 182.643 66.9612 177.149 69.5973 170.999C73.4953 161.905 74.4309 159.531 74.6086 158.28C75.1861 154.215 73.3682 150.077 70.6055 149.167C69.2339 148.715 66.9229 148.982 65.3593 149.774C63.678 150.625 61.6394 152.494 60.9063 153.856C60.5969 154.431 58.1734 159.965 55.5207 166.154C50.1755 178.623 50.0406 179.049 50.4988 181.99C51.1206 185.983 53.0196 188.099 56.1377 188.276C57.0285 188.326 57.8906 188.244 58.3785 188.062ZM98.3618 148.821C106.692 147.996 112.197 146.458 118.94 143.076C124.312 140.382 128.737 137.157 133.298 132.613C137.65 128.278 140.415 124.654 143.123 119.737C147.562 111.676 149.657 103.584 149.657 94.4998C149.657 87.8057 148.606 82.0555 146.283 76.0505C140.508 61.122 128.273 49.0001 113.348 43.4204C106.151 40.7294 98.0149 39.5919 90.8309 40.2719C77.3954 41.5436 65.6054 47.2998 55.9588 57.2973C48.559 64.9663 43.6725 74.0815 41.528 84.2163C40.5473 88.8513 40.267 95.8613 40.8698 100.678C42.0806 110.352 45.8488 119.254 52.2311 127.515C53.013 128.527 55.0744 130.775 56.8121 132.509C58.5497 134.243 60.801 136.301 61.815 137.081C69.9182 143.318 78.6192 147.061 88.1677 148.416C90.3543 148.726 96.7543 148.981 98.3618 148.821ZM183.818 138.469C186.03 137.923 187.607 136.818 188.398 135.261C188.884 134.302 188.948 133.941 188.882 132.514C188.776 130.229 188.027 128.756 185.896 126.643L184.252 125.013L172.374 119.973C164.08 116.455 160.087 114.867 159.143 114.714C156.49 114.282 153.144 115.076 151.491 116.528C149.977 117.859 149.599 118.779 149.698 120.89C149.808 123.218 150.539 124.708 152.586 126.774L154.104 128.307L165.708 133.252C172.09 135.971 177.796 138.326 178.389 138.485C179.707 138.837 182.355 138.83 183.818 138.469V138.469ZM10.0855 137.098C10.8616 136.985 34.0854 127.653 35.0399 127.071C36.2278 126.346 38.3813 123.907 38.985 122.602C39.7328 120.986 39.8996 118.812 39.3801 117.454C38.9453 116.318 37.4498 114.881 36.101 114.304C34.6827 113.697 32.4675 113.369 30.7086 113.505C29.3436 113.61 27.8419 114.16 17.2431 118.432C10.682 121.077 4.9084 123.519 4.41289 123.859C3.14792 124.726 1.47572 126.662 0.743851 128.105C-0.792374 131.136 0.231918 134.747 3.03244 136.173C4.62497 136.984 7.90855 137.415 10.0855 137.098ZM160.491 75.3982C161.575 75.1951 184.716 65.7402 185.578 65.1481C186.772 64.3284 188.309 62.5952 189.16 61.1111C190.104 59.464 190.275 57.2969 189.584 55.7372C188.997 54.4122 188.649 54.0213 187.265 53.1304C185.797 52.1853 183.151 51.6342 180.967 51.8185C179.57 51.9364 178.058 52.489 167.508 56.7387C160.971 59.3718 155.314 61.714 154.937 61.9437C153.816 62.6269 151.705 65.0353 151.043 66.3864C150.259 67.9858 150.082 70.1403 150.62 71.5457C151.052 72.6761 152.548 74.1178 153.88 74.6876C155.603 75.4248 158.618 75.7489 160.491 75.3982ZM34.3206 74.2505C36.9672 73.8057 39.0267 72.5368 39.8867 70.8214C41.1687 68.2642 40.2539 65.0785 37.4184 62.2261L35.896 60.6946L24.2921 55.7486C17.91 53.0283 12.2003 50.6665 11.6038 50.5001C10.0567 50.0687 6.75981 50.2513 5.17398 50.8562C3.31886 51.5638 2.30055 52.4045 1.62213 53.7886C1.09647 54.861 1.03984 55.1807 1.13043 56.5646C1.27779 58.8155 2.05154 60.3233 4.10298 62.3572L5.74762 63.9878L17.6355 69.0279C30.85 74.6304 31.2728 74.7627 34.3206 74.2505ZM123.413 39.8485C125.53 39.2017 128.328 36.9697 129.31 35.1433C129.62 34.5683 132.043 29.0345 134.696 22.8461C140.044 10.3693 140.173 9.96394 139.72 6.98062C138.684 0.143427 132.81 -1.416 127.629 3.77055L126.097 5.30396L120.945 17.3169C115.336 30.3943 115.275 30.5819 115.627 33.7344C115.936 36.497 117.304 38.7697 119.184 39.6401C120.089 40.0594 122.357 40.1711 123.413 39.8485ZM72.8267 39.1739C74.6427 38.2503 75.9018 36.1462 76.3825 33.2318C76.8251 30.5489 76.6684 30.0256 71.6506 17.4277C69.0896 10.9978 66.7635 5.34726 66.4817 4.87097C65.7298 3.60047 63.8578 1.8723 62.2488 0.963287C59.0595 -0.838486 55.3912 0.0582611 53.9231 2.99854C52.978 4.8915 52.527 7.82125 52.8843 9.7469C53.2451 11.6913 62.3368 34.2975 63.2663 35.5614C64.1812 36.8054 65.7711 38.1165 67.333 38.9149C68.9058 39.7189 71.5136 39.8418 72.8267 39.1739Z" fill="#FBF8A1"/>
</svg>
